<svg viewBox="0 0 40 40" xmlns="http://www.w3.org/2000/svg">
  <defs>
    <linearGradient id="grad1" x1="0%" y1="0%" x2="100%" y2="100%">
      <stop offset="0%" style="stop-color:#0b2e4d;stop-opacity:1" />
      <stop offset="100%" style="stop-color:#1a3d5c;stop-opacity:1" />
    </linearGradient>
    <linearGradient id="grad2" x1="0%" y1="0%" x2="100%" y2="100%">
      <stop offset="0%" style="stop-color:#FDB813;stop-opacity:1" />
      <stop offset="100%" style="stop-color:#e6a612;stop-opacity:1" />
    </linearGradient>
    <pattern id="grid" width="4" height="4" patternUnits="userSpaceOnUse">
      <path d="M 4 0 L 0 0 0 4" fill="none" stroke="white" stroke-width="0.2" opacity="0.1"/>
    </pattern>
  </defs>
  
  <!-- Background with subtle pattern -->
  <rect width="40" height="40" rx="8" fill="url(#grad1)"/>
  <rect width="40" height="40" rx="8" fill="url(#grid)"/>
  
  <!-- Modern "C" for Computing -->
  <path 
    d="M15 8 C10 8, 6 12, 6 20 C6 28, 10 32, 15 32 C20 32, 24 28, 24 20" 
    stroke="#FDB813" 
    stroke-width="3" 
    fill="none"
    stroke-linecap="round"
  />
  
  <!-- Digital circuit lines -->
  <path d="M26 12 L32 12" stroke="white" stroke-width="2" stroke-linecap="round"/>
  <path d="M26 18 L34 18" stroke="white" stroke-width="2" stroke-linecap="round"/>
  <path d="M26 22 L30 22" stroke="white" stroke-width="2" stroke-linecap="round"/>
  <path d="M26 26 L33 26" stroke="white" stroke-width="2" stroke-linecap="round"/>
  
  <!-- Innovation dots -->
  <circle cx="30" cy="6" r="1.5" fill="#FDB813"/>
  <circle cx="34" cy="28" r="1" fill="#FDB813"/>
  <circle cx="8" cy="8" r="0.8" fill="#FDB813"/>
</svg>
